<mxfile host="app.diagrams.net" agent="Mozilla/5.0 (Windows NT 10.0; Win64; x64) AppleWebKit/537.36 (KHTML, like Gecko) Chrome/129.0.0.0 Safari/537.36" version="24.7.17">
  <diagram name="Page-1" id="74b105a0-9070-1c63-61bc-23e55f88626e">
    <mxGraphModel dx="1793" dy="965" grid="1" gridSize="10" guides="1" tooltips="1" connect="1" arrows="1" fold="1" page="1" pageScale="1.5" pageWidth="1169" pageHeight="826" background="none" math="0" shadow="0">
      <root>
        <mxCell id="0" style=";html=1;" />
        <mxCell id="1" style=";html=1;" parent="0" />
        <mxCell id="2F61KloUARLIfWgub4LG-26" style="edgeStyle=orthogonalEdgeStyle;rounded=0;orthogonalLoop=1;jettySize=auto;html=1;" edge="1" parent="1" source="2F61KloUARLIfWgub4LG-4" target="2F61KloUARLIfWgub4LG-25">
          <mxGeometry relative="1" as="geometry" />
        </mxCell>
        <mxCell id="2F61KloUARLIfWgub4LG-4" value="" style="strokeWidth=2;dashed=0;align=center;fontSize=12;shape=rect;verticalLabelPosition=bottom;verticalAlign=top;fillColor=#c0f5a9" vertex="1" parent="1">
          <mxGeometry x="770.25" y="890" width="250" height="120" as="geometry" />
        </mxCell>
        <mxCell id="10b056a9c633e61c-4" value="" style="strokeWidth=2;dashed=0;align=center;fontSize=12;shape=rect;verticalLabelPosition=bottom;verticalAlign=top;fillColor=#c0f5a9" parent="1" vertex="1">
          <mxGeometry x="760" y="160" width="260" height="130" as="geometry" />
        </mxCell>
        <mxCell id="10b056a9c633e61c-30" value="Diagrama de Contexto" style="text;strokeColor=none;fillColor=none;html=1;fontSize=24;fontStyle=1;verticalAlign=middle;align=center;" parent="1" vertex="1">
          <mxGeometry x="80" y="40" width="1590" height="40" as="geometry" />
        </mxCell>
        <mxCell id="2F61KloUARLIfWgub4LG-1" value="Usuário da Aplicação, pode ser Funcionario ou gerente" style="text;html=1;align=center;verticalAlign=middle;whiteSpace=wrap;rounded=0;" vertex="1" parent="1">
          <mxGeometry x="800" y="190" width="180" height="70" as="geometry" />
        </mxCell>
        <mxCell id="2F61KloUARLIfWgub4LG-2" value="&lt;font style=&quot;font-size: 15px;&quot;&gt;Aplicação Spring boot fornece Apis para consumo&lt;/font&gt;" style="text;html=1;align=center;verticalAlign=middle;whiteSpace=wrap;rounded=0;" vertex="1" parent="1">
          <mxGeometry x="805.25" y="920" width="180" height="60" as="geometry" />
        </mxCell>
        <mxCell id="2F61KloUARLIfWgub4LG-7" style="edgeStyle=orthogonalEdgeStyle;rounded=0;orthogonalLoop=1;jettySize=auto;html=1;exitX=1;exitY=0.5;exitDx=0;exitDy=0;" edge="1" parent="1" source="2F61KloUARLIfWgub4LG-4" target="2F61KloUARLIfWgub4LG-22">
          <mxGeometry relative="1" as="geometry">
            <mxPoint x="990.25" y="1294" as="targetPoint" />
          </mxGeometry>
        </mxCell>
        <mxCell id="2F61KloUARLIfWgub4LG-8" value="Salvar/Recuperar" style="text;html=1;align=center;verticalAlign=middle;whiteSpace=wrap;rounded=0;" vertex="1" parent="1">
          <mxGeometry x="1090.25" y="1020" width="60" height="30" as="geometry" />
        </mxCell>
        <mxCell id="2F61KloUARLIfWgub4LG-11" value="" style="outlineConnect=0;dashed=0;verticalLabelPosition=bottom;verticalAlign=top;align=center;html=1;shape=mxgraph.aws3.door_lock;fillColor=#5294CF;gradientColor=none;" vertex="1" parent="1">
          <mxGeometry x="820.13" y="690" width="139.75" height="119.5" as="geometry" />
        </mxCell>
        <mxCell id="2F61KloUARLIfWgub4LG-13" value="Autenticar" style="text;html=1;align=center;verticalAlign=middle;whiteSpace=wrap;rounded=0;" vertex="1" parent="1">
          <mxGeometry x="890.25" y="630" width="60" height="30" as="geometry" />
        </mxCell>
        <mxCell id="2F61KloUARLIfWgub4LG-15" value="Keycloak" style="text;html=1;align=center;verticalAlign=middle;whiteSpace=wrap;rounded=0;" vertex="1" parent="1">
          <mxGeometry x="760" y="734.75" width="60" height="30" as="geometry" />
        </mxCell>
        <mxCell id="2F61KloUARLIfWgub4LG-21" style="edgeStyle=orthogonalEdgeStyle;rounded=0;orthogonalLoop=1;jettySize=auto;html=1;" edge="1" parent="1" source="2F61KloUARLIfWgub4LG-16" target="2F61KloUARLIfWgub4LG-11">
          <mxGeometry relative="1" as="geometry" />
        </mxCell>
        <mxCell id="2F61KloUARLIfWgub4LG-16" value="" style="strokeWidth=1;shadow=0;dashed=0;align=center;html=1;shape=mxgraph.mockup.containers.browserWindow;rSize=0;strokeColor=#666666;strokeColor2=#008cff;strokeColor3=#c4c4c4;mainText=,;recursiveResize=0;" vertex="1" parent="1">
          <mxGeometry x="760" y="390" width="260" height="200" as="geometry" />
        </mxCell>
        <mxCell id="2F61KloUARLIfWgub4LG-17" value="" style="strokeWidth=1;shadow=0;dashed=0;align=center;html=1;shape=mxgraph.mockup.containers.anchor;fontSize=17;fontColor=#666666;align=left;whiteSpace=wrap;" vertex="1" parent="2F61KloUARLIfWgub4LG-16">
          <mxGeometry x="60" y="12" width="110" height="26" as="geometry" />
        </mxCell>
        <mxCell id="2F61KloUARLIfWgub4LG-18" value="" style="strokeWidth=1;shadow=0;dashed=0;align=center;html=1;shape=mxgraph.mockup.containers.anchor;rSize=0;fontSize=17;fontColor=#666666;align=left;" vertex="1" parent="2F61KloUARLIfWgub4LG-16">
          <mxGeometry x="130" y="60" width="250" height="26" as="geometry" />
        </mxCell>
        <mxCell id="2F61KloUARLIfWgub4LG-20" value="&lt;font style=&quot;font-size: 17px;&quot;&gt;Aplicação Front End&lt;/font&gt;" style="text;html=1;align=center;verticalAlign=middle;whiteSpace=wrap;rounded=0;" vertex="1" parent="2F61KloUARLIfWgub4LG-16">
          <mxGeometry x="10" y="110" width="240" height="60" as="geometry" />
        </mxCell>
        <mxCell id="2F61KloUARLIfWgub4LG-19" style="edgeStyle=orthogonalEdgeStyle;rounded=0;orthogonalLoop=1;jettySize=auto;html=1;entryX=0.503;entryY=0.022;entryDx=0;entryDy=0;entryPerimeter=0;" edge="1" parent="1" target="2F61KloUARLIfWgub4LG-16">
          <mxGeometry relative="1" as="geometry">
            <mxPoint x="890.25" y="290" as="sourcePoint" />
          </mxGeometry>
        </mxCell>
        <mxCell id="2F61KloUARLIfWgub4LG-22" value="" style="image;sketch=0;aspect=fixed;html=1;points=[];align=center;fontSize=12;image=img/lib/mscae/Azure_Database_for_PostgreSQL_servers.svg;" vertex="1" parent="1">
          <mxGeometry x="1020.25" y="1100" width="91.2" height="120" as="geometry" />
        </mxCell>
        <mxCell id="2F61KloUARLIfWgub4LG-24" style="edgeStyle=orthogonalEdgeStyle;rounded=0;orthogonalLoop=1;jettySize=auto;html=1;entryX=0.476;entryY=0.013;entryDx=0;entryDy=0;entryPerimeter=0;" edge="1" parent="1" source="2F61KloUARLIfWgub4LG-11" target="2F61KloUARLIfWgub4LG-4">
          <mxGeometry relative="1" as="geometry" />
        </mxCell>
        <mxCell id="2F61KloUARLIfWgub4LG-25" value="" style="outlineConnect=0;dashed=0;verticalLabelPosition=bottom;verticalAlign=top;align=center;html=1;shape=mxgraph.aws3.search_documents;fillColor=#F58534;gradientColor=none;" vertex="1" parent="1">
          <mxGeometry x="835.25" y="1108.5" width="120" height="103" as="geometry" />
        </mxCell>
        <mxCell id="2F61KloUARLIfWgub4LG-27" value="Salvar/recuperar&lt;div&gt;Documentos&lt;/div&gt;" style="text;html=1;align=center;verticalAlign=middle;whiteSpace=wrap;rounded=0;" vertex="1" parent="1">
          <mxGeometry x="910.25" y="1050" width="60" height="30" as="geometry" />
        </mxCell>
      </root>
    </mxGraphModel>
  </diagram>
</mxfile>
